<svg width="50" height="50" viewBox="0 0 50 50" fill="none" xmlns="http://www.w3.org/2000/svg">
<rect width="50" height="50" rx="4" fill="#2926AC"/>
<path d="M35.9979 23.9444L16.1645 14.611C15.9648 14.5171 15.7425 14.4817 15.5235 14.509C15.3045 14.5363 15.0977 14.6251 14.9272 14.7652C14.7566 14.9054 14.6293 15.091 14.5601 15.3006C14.4908 15.5101 14.4824 15.735 14.5359 15.9492L15.9499 21.6064L25.0009 25.0002L15.9499 28.394L14.5359 34.0512C14.4814 34.2655 14.4891 34.4909 14.558 34.701C14.627 34.9111 14.7543 35.0972 14.9252 35.2376C15.096 35.3779 15.3033 35.4668 15.5228 35.4936C15.7423 35.5205 15.9649 35.4844 16.1645 35.3894L35.9979 26.056C36.1983 25.9618 36.3678 25.8125 36.4865 25.6255C36.6052 25.4386 36.6682 25.2217 36.6682 25.0002C36.6682 24.7787 36.6052 24.5618 36.4865 24.3749C36.3678 24.1879 36.1983 24.0386 35.9979 23.9444Z" fill="white"/>
</svg>
