<svg width="187" height="25" viewBox="0 0 187 25" fill="none" xmlns="http://www.w3.org/2000/svg">
<circle cx="12.2619" cy="12.2619" r="12.2619" fill="#2926AC"/>
<path d="M18.4556 14.7964L16.9669 9.10135C16.9281 8.93009 16.7584 8.82222 16.587 8.85993L14.0868 9.51346L14.0881 9.51472L12.172 10.0154C12.188 10.0766 14.7651 12.2318 14.7219 12.278C14.6786 12.3241 14.6148 12.3448 14.5528 12.3328L13.8829 12.1595H13.8828C13.8011 12.1198 13.7026 12.1454 13.6505 12.2199L13.1461 12.7026H13.1462C13.0977 12.7432 13.0319 12.756 12.9718 12.7367C12.9116 12.7175 12.8655 12.6688 12.8496 12.6076L12.172 10.0154L9.67312 10.6689C9.50513 10.7193 9.40933 10.896 9.45884 11.0644L10.9476 16.761C10.9877 16.9318 11.1575 17.0387 11.3287 17.0011L18.2425 15.1921H18.2426C18.4102 15.1413 18.5055 14.9647 18.4556 14.7966L18.4556 14.7964Z" fill="white"/>
<path d="M14.7219 12.278C14.7651 12.2318 12.1881 10.0768 12.172 10.0154L12.8496 12.6076C12.8655 12.6688 12.9116 12.7175 12.9718 12.7367C13.0319 12.756 13.0977 12.7432 13.1462 12.7026H13.1461L13.6505 12.2199C13.7026 12.1454 13.8011 12.1198 13.8828 12.1595H13.8829L14.5528 12.3328C14.6148 12.3448 14.6786 12.3241 14.7219 12.278Z" fill="white"/>
<path d="M19.5086 16.9687L11.5289 19.0575L9.16632 17.5603L6.51325 7.4124L4.35897 6.15069C4.18888 6.04826 4.08559 5.86337 4.08743 5.66471C4.08926 5.46604 4.19611 5.28321 4.36815 5.18399C4.54018 5.08489 4.75182 5.08409 4.92455 5.18216L7.28071 6.56225C7.41165 6.63965 7.50576 6.76677 7.54157 6.91467C7.54157 6.91858 7.5441 6.9211 7.5441 6.92501L10.2705 17.3531L10.4839 18.1711L11.2447 17.9717L19.2256 15.8842C19.4192 15.8337 19.625 15.8903 19.7656 16.0328C19.9061 16.1752 19.96 16.3819 19.907 16.5749C19.854 16.7679 19.702 16.918 19.5084 16.9685L19.5086 16.9687Z" fill="white"/>
<path d="M11.4834 18.4844C11.3508 17.9796 10.974 17.575 10.4799 17.4067C9.98597 17.2384 9.44045 17.3291 9.02733 17.6479C8.61422 17.9668 8.38833 18.4715 8.42593 18.9921C8.46353 19.5127 8.75958 19.9797 9.21421 20.236C9.66896 20.4921 10.2217 20.5034 10.6865 20.2659C11.1512 20.0284 11.4659 19.5737 11.5247 19.0551C11.5464 18.864 11.5324 18.6705 11.4834 18.4844L11.4834 18.4844ZM10.1257 19.4467L10.1258 19.4468C9.93318 19.4965 9.72846 19.4449 9.58228 19.31C9.43598 19.175 9.36835 18.9751 9.40263 18.779C9.43679 18.583 9.56813 18.4178 9.75147 18.3403C9.93469 18.2628 10.1447 18.2838 10.3092 18.3958C10.4736 18.5078 10.5699 18.6956 10.5648 18.8946C10.5598 19.0935 10.4541 19.2762 10.2842 19.3797C10.2352 19.4101 10.1817 19.4328 10.1258 19.4468L10.1257 19.4467Z" fill="white"/>
<path d="M11.4359 7.33419L11.412 9.57525L10.7915 9.72995L10.1105 8.42879L10.1081 9.90035L9.48757 10.0551L8.42935 8.08381L8.9779 7.94704L9.66256 9.4033L9.65535 7.77813L10.2189 7.63763L10.9605 9.07969L10.8843 7.47171L11.4359 7.33419Z" fill="white"/>
<path d="M14.076 6.67594L14.6007 8.78022L14.0881 8.90802L13.7734 7.64605L13.6175 9.02536L13.2038 9.1285L12.4148 7.98161L12.7302 9.24658L12.2176 9.37438L11.693 7.2701L12.2985 7.11913L13.2522 8.42871L13.4735 6.82616L14.076 6.67594Z" fill="white"/>
<path d="M15.7359 8.51947C15.582 8.55783 15.4379 8.56723 15.3035 8.54766C15.1692 8.5281 15.0528 8.47857 14.9545 8.39909C14.8581 8.3191 14.7908 8.21067 14.7524 8.07378L15.2979 7.93775C15.3254 8.0137 15.3673 8.06692 15.4237 8.09743C15.4796 8.12594 15.5446 8.13097 15.6185 8.11254C15.6945 8.0936 15.7502 8.06167 15.7857 8.01674C15.8207 7.9698 15.8304 7.91536 15.815 7.85341C15.802 7.80146 15.7733 7.76298 15.7289 7.73797C15.6865 7.71247 15.6365 7.6952 15.5791 7.68618C15.5236 7.67665 15.4455 7.66961 15.3446 7.66505C15.1982 7.65696 15.0768 7.64265 14.9804 7.62211C14.8841 7.60157 14.7947 7.55806 14.7123 7.49157C14.6299 7.42508 14.5723 7.32589 14.5394 7.194C14.4906 6.99816 14.5234 6.82759 14.6379 6.68231C14.7519 6.53502 14.9228 6.43298 15.1506 6.37618C15.3824 6.31838 15.5832 6.32775 15.753 6.40429C15.9223 6.47882 16.0366 6.61376 16.0959 6.80911L15.5413 6.94737C15.5204 6.88042 15.4822 6.8337 15.4268 6.80719C15.3708 6.77868 15.3069 6.77339 15.235 6.79133C15.173 6.80678 15.1273 6.83622 15.0978 6.87966C15.0678 6.9211 15.0605 6.97279 15.076 7.03474C15.0929 7.10269 15.1381 7.14767 15.2115 7.1697C15.2849 7.19172 15.3951 7.20778 15.5419 7.21786C15.6893 7.22994 15.8101 7.2465 15.9045 7.26754C16.0009 7.28808 16.0901 7.3306 16.1719 7.39509C16.2538 7.45957 16.3104 7.55477 16.3418 7.68067C16.3717 7.80057 16.3679 7.9172 16.3304 8.03057C16.2948 8.14344 16.2263 8.24329 16.1249 8.33015C16.0234 8.417 15.8938 8.4801 15.7359 8.51947Z" fill="white"/>
<path d="M31.9169 17.834L30.3545 5.0531H32.7778L33.5431 12.5007L34.5156 5.06888H36.4128L37.4331 12.4534L38.2143 5.0531H40.6058L39.0593 17.834H36.5722L35.4722 10.1181L34.4359 17.834H31.9169Z" fill="#2926AC"/>
<path d="M43.6262 17.9918C43.1586 17.9918 42.7653 17.8813 42.4464 17.6604C42.1276 17.4395 41.8884 17.1608 41.729 16.8241C41.5696 16.477 41.4899 16.1246 41.4899 15.767C41.4899 15.1989 41.6015 14.7203 41.8247 14.3311C42.0585 13.9419 42.3614 13.6158 42.7334 13.3528C43.1054 13.0898 43.5146 12.8689 43.961 12.6901C44.4074 12.5007 44.8485 12.3324 45.2843 12.1851V11.27C45.2843 11.1122 45.2683 10.9754 45.2365 10.8597C45.2046 10.7335 45.1514 10.6388 45.077 10.5757C45.0026 10.5021 44.891 10.4653 44.7422 10.4653C44.5934 10.4653 44.4765 10.4968 44.3915 10.5599C44.3171 10.623 44.2639 10.7125 44.232 10.8282C44.2002 10.9334 44.1789 11.0543 44.1683 11.1911L44.1045 11.8538L41.6812 11.7591C41.7343 10.6651 42.0266 9.8604 42.558 9.34495C43.1001 8.81899 43.9079 8.55601 44.9814 8.55601C45.9167 8.55601 46.6129 8.81373 47.0699 9.32917C47.5375 9.8341 47.7714 10.4916 47.7714 11.3015V15.5618C47.7714 15.9405 47.7767 16.2719 47.7873 16.5559C47.8086 16.8399 47.8298 17.0871 47.8511 17.2975C47.883 17.5079 47.9095 17.6867 47.9308 17.834H45.6031C45.5713 17.592 45.5341 17.3291 45.4915 17.045C45.449 16.761 45.4171 16.5927 45.3959 16.5401C45.2896 16.9188 45.0877 17.2554 44.7901 17.55C44.5031 17.8445 44.1151 17.9918 43.6262 17.9918ZM44.5509 16.2561C44.6572 16.2561 44.7529 16.2351 44.8379 16.193C44.9335 16.1509 45.0186 16.0931 45.093 16.0194C45.1674 15.9458 45.2311 15.8721 45.2843 15.7985V13.3055C45.0717 13.4317 44.8751 13.5632 44.6944 13.6999C44.5137 13.8262 44.3596 13.9682 44.232 14.126C44.1045 14.2837 44.0035 14.4573 43.9291 14.6467C43.8654 14.8255 43.8335 15.0306 43.8335 15.262C43.8335 15.5671 43.8972 15.809 44.0248 15.9879C44.1523 16.1667 44.3277 16.2561 44.5509 16.2561Z" fill="#2926AC"/>
<path d="M49.3431 17.834V8.7138H51.9418V10.2286C52.2394 9.70261 52.537 9.30288 52.8346 9.02938C53.1322 8.74536 53.4936 8.60335 53.9187 8.60335C54.0038 8.60335 54.0782 8.60861 54.1419 8.61913C54.2057 8.61913 54.2642 8.62964 54.3173 8.65068V11.2069C54.2004 11.1543 54.0675 11.1122 53.9187 11.0806C53.7806 11.0386 53.6318 11.0175 53.4723 11.0175C53.1747 11.0175 52.8984 11.0964 52.6433 11.2542C52.3882 11.412 52.1544 11.6276 51.9418 11.9011V17.834H49.3431Z" fill="#2926AC"/>
<path d="M58.4276 17.9918C57.758 17.9918 57.184 17.8761 56.7058 17.6446C56.2275 17.4027 55.8608 17.0556 55.6057 16.6032C55.3506 16.1404 55.2231 15.5881 55.2231 14.9465V11.6013C55.2231 10.9491 55.3506 10.3969 55.6057 9.94455C55.8608 9.49222 56.2275 9.15035 56.7058 8.91893C57.1947 8.67698 57.7686 8.55601 58.4276 8.55601C59.1078 8.55601 59.6711 8.67172 60.1175 8.90315C60.5746 9.13457 60.9147 9.47644 61.1379 9.92877C61.3717 10.3811 61.4886 10.9386 61.4886 11.6013V13.4317H57.7899V15.1831C57.7899 15.4146 57.8165 15.6039 57.8696 15.7512C57.9227 15.8984 57.9971 16.0036 58.0928 16.0668C58.1884 16.1299 58.3001 16.1614 58.4276 16.1614C58.5551 16.1614 58.6667 16.1351 58.7624 16.0825C58.8687 16.0194 58.9484 15.9247 59.0015 15.7985C59.0653 15.6723 59.0972 15.4987 59.0972 15.2778V14.3153H61.4886V15.1989C61.4886 16.1246 61.2176 16.8241 60.6755 17.2975C60.1335 17.7604 59.3842 17.9918 58.4276 17.9918ZM57.7899 12.2325H59.0972V11.3173C59.0972 11.0754 59.0653 10.886 59.0015 10.7493C58.9484 10.6125 58.8687 10.5179 58.7624 10.4653C58.6667 10.4127 58.5498 10.3864 58.4117 10.3864C58.2841 10.3864 58.1725 10.4179 58.0769 10.481C57.9918 10.5441 57.9227 10.6546 57.8696 10.8124C57.8165 10.9597 57.7899 11.1753 57.7899 11.4593V12.2325Z" fill="#2926AC"/>
<path d="M62.9191 17.834V5.0531H65.5019V9.51852C65.842 9.18191 66.1981 8.93996 66.5701 8.79269C66.9421 8.63491 67.3406 8.55601 67.7658 8.55601C68.1378 8.55601 68.446 8.65068 68.6905 8.84003C68.9456 9.01886 69.1369 9.27132 69.2644 9.59742C69.392 9.91299 69.4557 10.2759 69.4557 10.6862V17.834H66.873V11.0491C66.873 10.8282 66.8358 10.6599 66.7614 10.5441C66.687 10.4284 66.5488 10.3706 66.3469 10.3706C66.2406 10.3706 66.113 10.4021 65.9642 10.4653C65.8154 10.5179 65.6613 10.5967 65.5019 10.7019V17.834H62.9191Z" fill="#2926AC"/>
<path d="M74.0439 17.9918C73.385 17.9918 72.811 17.8813 72.3221 17.6604C71.8438 17.4395 71.4718 17.1082 71.2061 16.6664C70.951 16.2245 70.8235 15.6723 70.8235 15.0096V11.5382C70.8235 10.8755 70.951 10.3232 71.2061 9.88144C71.4718 9.43963 71.8438 9.10827 72.3221 8.88737C72.811 8.66646 73.385 8.55601 74.0439 8.55601C74.7029 8.55601 75.2715 8.66646 75.7498 8.88737C76.2387 9.10827 76.616 9.43963 76.8818 9.88144C77.1475 10.3232 77.2803 10.8755 77.2803 11.5382V15.0096C77.2803 15.6723 77.1475 16.2245 76.8818 16.6664C76.616 17.1082 76.2387 17.4395 75.7498 17.6604C75.2715 17.8813 74.7029 17.9918 74.0439 17.9918ZM74.0599 16.2877C74.2299 16.2877 74.3628 16.2456 74.4584 16.1614C74.5541 16.0668 74.6179 15.9405 74.6498 15.7827C74.6923 15.6144 74.7135 15.4146 74.7135 15.1831V11.3646C74.7135 11.1332 74.6923 10.9386 74.6498 10.7808C74.6179 10.6125 74.5541 10.4863 74.4584 10.4021C74.3628 10.3075 74.2299 10.2601 74.0599 10.2601C73.8898 10.2601 73.757 10.3075 73.6613 10.4021C73.5656 10.4863 73.4966 10.6125 73.454 10.7808C73.4115 10.9386 73.3903 11.1332 73.3903 11.3646V15.1831C73.3903 15.4146 73.4115 15.6144 73.454 15.7827C73.4966 15.9405 73.5656 16.0668 73.6613 16.1614C73.757 16.2456 73.8898 16.2877 74.0599 16.2877Z" fill="#2926AC"/>
<path d="M80.3477 17.9918C79.9757 17.9918 79.6569 17.9024 79.3912 17.7235C79.1361 17.5342 78.9447 17.2765 78.8172 16.9504C78.6897 16.6243 78.6259 16.2614 78.6259 15.8616V8.7138H81.2246V15.5618C81.2246 15.7827 81.2618 15.9563 81.3362 16.0825C81.4212 16.1982 81.5647 16.2561 81.7666 16.2561C81.8836 16.2561 82.0058 16.2298 82.1333 16.1772C82.2609 16.1141 82.3937 16.0457 82.5319 15.9721V8.7138H85.1147V17.834H82.5319V16.9977C82.2024 17.3028 81.8517 17.5447 81.4797 17.7235C81.1183 17.9024 80.741 17.9918 80.3477 17.9918Z" fill="#2926AC"/>
<path d="M89.5931 17.9918C88.7853 17.9918 88.1104 17.8129 87.5684 17.4553C87.0369 17.0976 86.6012 16.5138 86.2611 15.7038L88.0307 14.9307C88.2008 15.3409 88.3974 15.667 88.6206 15.909C88.8544 16.1404 89.1095 16.2561 89.3859 16.2561C89.5878 16.2561 89.7366 16.214 89.8323 16.1299C89.9385 16.0457 89.9917 15.93 89.9917 15.7827C89.9917 15.5408 89.896 15.3199 89.7047 15.12C89.524 14.9202 89.1945 14.6256 88.7163 14.2364L88.0467 13.6841C87.5577 13.2739 87.1698 12.8794 86.8828 12.5007C86.6065 12.1115 86.4683 11.6329 86.4683 11.0649C86.4683 10.5704 86.5958 10.1339 86.8509 9.7552C87.1166 9.37651 87.4674 9.08197 87.9032 8.87159C88.3389 8.6612 88.8066 8.55601 89.3061 8.55601C90.0608 8.55601 90.6932 8.76114 91.2034 9.17139C91.7135 9.58164 92.0696 10.1602 92.2715 10.9071L90.5975 11.6644C90.5338 11.4646 90.4434 11.2647 90.3265 11.0649C90.2096 10.865 90.0661 10.6967 89.896 10.5599C89.7366 10.4232 89.5612 10.3548 89.3699 10.3548C89.1999 10.3548 89.0617 10.4021 88.9554 10.4968C88.8597 10.5915 88.8119 10.7177 88.8119 10.8755C88.8119 11.0754 88.9235 11.291 89.1467 11.5224C89.3805 11.7539 89.6994 12.0326 90.1033 12.3587L90.757 12.9268C91.0227 13.1477 91.2831 13.3843 91.5382 13.6368C91.7932 13.8893 92.0005 14.168 92.1599 14.4731C92.33 14.7781 92.415 15.1253 92.415 15.5145C92.415 16.0405 92.2822 16.4928 92.0164 16.8715C91.7507 17.2396 91.4 17.5184 90.9642 17.7078C90.5391 17.8971 90.082 17.9918 89.5931 17.9918Z" fill="#2926AC"/>
<path d="M96.5255 17.9918C95.8559 17.9918 95.282 17.8761 94.8037 17.6446C94.3254 17.4027 93.9587 17.0556 93.7036 16.6032C93.4486 16.1404 93.321 15.5881 93.321 14.9465V11.6013C93.321 10.9491 93.4486 10.3969 93.7036 9.94455C93.9587 9.49222 94.3254 9.15035 94.8037 8.91893C95.2926 8.67698 95.8666 8.55601 96.5255 8.55601C97.2058 8.55601 97.7691 8.67172 98.2155 8.90315C98.6725 9.13457 99.0126 9.47644 99.2358 9.92877C99.4697 10.3811 99.5866 10.9386 99.5866 11.6013V13.4317H95.8878V15.1831C95.8878 15.4146 95.9144 15.6039 95.9675 15.7512C96.0207 15.8984 96.0951 16.0036 96.1907 16.0668C96.2864 16.1299 96.398 16.1614 96.5255 16.1614C96.6531 16.1614 96.7647 16.1351 96.8603 16.0825C96.9666 16.0194 97.0463 15.9247 97.0995 15.7985C97.1633 15.6723 97.1951 15.4987 97.1951 15.2778V14.3153H99.5866V15.1989C99.5866 16.1246 99.3156 16.8241 98.7735 17.2975C98.2314 17.7604 97.4821 17.9918 96.5255 17.9918ZM95.8878 12.2325H97.1951V11.3173C97.1951 11.0754 97.1633 10.886 97.0995 10.7493C97.0463 10.6125 96.9666 10.5179 96.8603 10.4653C96.7647 10.4127 96.6478 10.3864 96.5096 10.3864C96.3821 10.3864 96.2705 10.4179 96.1748 10.481C96.0898 10.5441 96.0207 10.6546 95.9675 10.8124C95.9144 10.9597 95.8878 11.1753 95.8878 11.4593V12.2325Z" fill="#2926AC"/>
<path d="M105.176 17.834L105.399 5.0531H108.46L109.879 12.4849L111.41 5.0531H114.359L114.582 17.834H112.558L112.318 9.32917L110.82 17.834H109.018L107.424 9.26606L107.233 17.834H105.176Z" fill="#2926AC"/>
<path d="M118.203 17.9918C117.735 17.9918 117.342 17.8813 117.023 17.6604C116.704 17.4395 116.465 17.1608 116.306 16.8241C116.146 16.477 116.067 16.1246 116.067 15.767C116.067 15.1989 116.178 14.7203 116.401 14.3311C116.635 13.9419 116.938 13.6158 117.31 13.3528C117.682 13.0898 118.091 12.8689 118.538 12.6901C118.984 12.5007 119.425 12.3324 119.861 12.1851V11.27C119.861 11.1122 119.845 10.9754 119.813 10.8597C119.781 10.7335 119.728 10.6388 119.654 10.5757C119.579 10.5021 119.468 10.4653 119.319 10.4653C119.17 10.4653 119.053 10.4968 118.968 10.5599C118.894 10.623 118.841 10.7125 118.809 10.8282C118.777 10.9334 118.756 11.0543 118.745 11.1911L118.681 11.8538L116.258 11.7591C116.311 10.6651 116.603 9.8604 117.135 9.34495C117.677 8.81899 118.485 8.55601 119.558 8.55601C120.493 8.55601 121.19 8.81373 121.647 9.32917C122.114 9.8341 122.348 10.4916 122.348 11.3015V15.5618C122.348 15.9405 122.353 16.2719 122.364 16.5559C122.385 16.8399 122.407 17.0871 122.428 17.2975C122.46 17.5079 122.486 17.6867 122.508 17.834H120.18C120.148 17.592 120.111 17.3291 120.068 17.045C120.026 16.761 119.994 16.5927 119.973 16.5401C119.866 16.9188 119.664 17.2554 119.367 17.55C119.08 17.8445 118.692 17.9918 118.203 17.9918ZM119.128 16.2561C119.234 16.2561 119.33 16.2351 119.415 16.193C119.51 16.1509 119.595 16.0931 119.67 16.0194C119.744 15.9458 119.808 15.8721 119.861 15.7985V13.3055C119.648 13.4317 119.452 13.5632 119.271 13.6999C119.09 13.8262 118.936 13.9682 118.809 14.126C118.681 14.2837 118.58 14.4573 118.506 14.6467C118.442 14.8255 118.41 15.0306 118.41 15.262C118.41 15.5671 118.474 15.809 118.601 15.9879C118.729 16.1667 118.904 16.2561 119.128 16.2561Z" fill="#2926AC"/>
<path d="M123.888 17.834V8.7138H126.487V9.62897C126.827 9.29236 127.177 9.02938 127.539 8.84003C127.911 8.65068 128.299 8.55601 128.703 8.55601C129.085 8.55601 129.399 8.65068 129.643 8.84003C129.898 9.01886 130.09 9.27132 130.217 9.59742C130.345 9.91299 130.409 10.2759 130.409 10.6862V17.834H127.826V11.0491C127.826 10.8282 127.789 10.6599 127.714 10.5441C127.64 10.4284 127.502 10.3706 127.3 10.3706C127.193 10.3706 127.066 10.4021 126.917 10.4653C126.779 10.5179 126.635 10.5967 126.487 10.7019V17.834H123.888Z" fill="#2926AC"/>
<path d="M133.866 17.9918C133.398 17.9918 133.005 17.8813 132.686 17.6604C132.367 17.4395 132.128 17.1608 131.968 16.8241C131.809 16.477 131.729 16.1246 131.729 15.767C131.729 15.1989 131.841 14.7203 132.064 14.3311C132.298 13.9419 132.601 13.6158 132.973 13.3528C133.345 13.0898 133.754 12.8689 134.2 12.6901C134.647 12.5007 135.088 12.3324 135.524 12.1851V11.27C135.524 11.1122 135.508 10.9754 135.476 10.8597C135.444 10.7335 135.391 10.6388 135.316 10.5757C135.242 10.5021 135.13 10.4653 134.982 10.4653C134.833 10.4653 134.716 10.4968 134.631 10.5599C134.556 10.623 134.503 10.7125 134.471 10.8282C134.44 10.9334 134.418 11.0543 134.408 11.1911L134.344 11.8538L131.921 11.7591C131.974 10.6651 132.266 9.8604 132.797 9.34495C133.339 8.81899 134.147 8.55601 135.221 8.55601C136.156 8.55601 136.852 8.81373 137.309 9.32917C137.777 9.8341 138.011 10.4916 138.011 11.3015V15.5618C138.011 15.9405 138.016 16.2719 138.027 16.5559C138.048 16.8399 138.069 17.0871 138.09 17.2975C138.122 17.5079 138.149 17.6867 138.17 17.834H135.843C135.811 17.592 135.773 17.3291 135.731 17.045C135.688 16.761 135.657 16.5927 135.635 16.5401C135.529 16.9188 135.327 17.2554 135.029 17.55C134.742 17.8445 134.355 17.9918 133.866 17.9918ZM134.79 16.2561C134.897 16.2561 134.992 16.2351 135.077 16.193C135.173 16.1509 135.258 16.0931 135.332 16.0194C135.407 15.9458 135.471 15.8721 135.524 15.7985V13.3055C135.311 13.4317 135.114 13.5632 134.934 13.6999C134.753 13.8262 134.599 13.9682 134.471 14.126C134.344 14.2837 134.243 14.4573 134.169 14.6467C134.105 14.8255 134.073 15.0306 134.073 15.262C134.073 15.5671 134.137 15.809 134.264 15.9879C134.392 16.1667 134.567 16.2561 134.79 16.2561Z" fill="#2926AC"/>
<path d="M142.548 20.9898C141.857 20.9898 141.256 20.9214 140.746 20.7846C140.236 20.6479 139.838 20.4428 139.551 20.1693C139.274 19.8958 139.136 19.5486 139.136 19.1279C139.136 18.8438 139.195 18.5861 139.311 18.3547C139.439 18.1338 139.609 17.9392 139.822 17.7709C140.045 17.592 140.295 17.4395 140.571 17.3133C140.167 17.1976 139.854 17.024 139.63 16.7926C139.407 16.5612 139.296 16.2508 139.296 15.8616C139.296 15.4935 139.386 15.1779 139.567 14.9149C139.747 14.6414 139.997 14.3679 140.316 14.0944C140.018 13.8314 139.79 13.5106 139.63 13.1319C139.482 12.7427 139.407 12.2746 139.407 11.7276C139.407 11.0438 139.535 10.4653 139.79 9.99189C140.045 9.51852 140.417 9.16087 140.906 8.91893C141.405 8.67698 142.006 8.55601 142.707 8.55601C143.186 8.55601 143.605 8.61387 143.967 8.72958C144.328 8.84529 144.636 9.02412 144.891 9.26606C145.008 9.08723 145.163 8.91366 145.354 8.74536C145.545 8.57705 145.763 8.43504 146.007 8.31933L146.342 8.16154L146.948 9.39229C146.852 9.42385 146.72 9.47644 146.55 9.55008C146.379 9.62371 146.199 9.70261 146.007 9.78676C145.827 9.87092 145.662 9.95507 145.513 10.0392C145.63 10.2706 145.721 10.5336 145.784 10.8282C145.848 11.1227 145.88 11.4278 145.88 11.7433C145.88 12.3955 145.758 12.9583 145.513 13.4317C145.279 13.905 144.929 14.268 144.461 14.5204C143.993 14.7624 143.409 14.8833 142.707 14.8833C142.41 14.8833 142.128 14.8623 141.862 14.8202C141.597 14.7676 141.352 14.7045 141.129 14.6309C141.065 14.715 141.007 14.8044 140.954 14.8991C140.911 14.9833 140.89 15.0779 140.89 15.1831C140.89 15.3094 140.954 15.4093 141.081 15.4829C141.209 15.5566 141.437 15.6144 141.767 15.6565L144.19 15.9247C144.977 16.0089 145.556 16.2614 145.928 16.6821C146.3 17.0924 146.486 17.6341 146.486 18.3074C146.486 18.8859 146.353 19.3751 146.087 19.7748C145.832 20.1745 145.412 20.4743 144.828 20.6742C144.254 20.8846 143.494 20.9898 142.548 20.9898ZM142.883 19.1279C143.467 19.1279 143.914 19.0805 144.222 18.9858C144.541 18.8912 144.7 18.6966 144.7 18.402C144.7 18.2548 144.658 18.1338 144.573 18.0391C144.488 17.955 144.344 17.8866 144.142 17.834C143.951 17.7709 143.675 17.7235 143.313 17.692L141.607 17.5184C141.501 17.592 141.405 17.6762 141.32 17.7709C141.246 17.855 141.182 17.9444 141.129 18.0391C141.086 18.1443 141.065 18.2548 141.065 18.3705C141.065 18.6229 141.203 18.8123 141.48 18.9385C141.756 19.0647 142.224 19.1279 142.883 19.1279ZM142.707 13.3528C142.856 13.3528 142.978 13.3265 143.074 13.2739C143.17 13.2108 143.239 13.1161 143.281 12.9899C143.334 12.8636 143.372 12.6953 143.393 12.4849C143.414 12.2746 143.425 12.0221 143.425 11.7276C143.425 11.4225 143.414 11.17 143.393 10.9702C143.372 10.7598 143.334 10.5915 143.281 10.4653C143.239 10.3285 143.17 10.2338 143.074 10.1812C142.978 10.1181 142.856 10.0866 142.707 10.0866C142.559 10.0866 142.436 10.1181 142.341 10.1812C142.245 10.2338 142.171 10.3232 142.117 10.4495C142.075 10.5757 142.043 10.744 142.022 10.9544C142.001 11.1648 141.99 11.4225 141.99 11.7276C141.99 12.0221 142.001 12.2746 142.022 12.4849C142.043 12.6848 142.075 12.8531 142.117 12.9899C142.171 13.1161 142.245 13.2108 142.341 13.2739C142.436 13.3265 142.559 13.3528 142.707 13.3528Z" fill="#2926AC"/>
<path d="M150.535 17.9918C149.866 17.9918 149.292 17.8761 148.813 17.6446C148.335 17.4027 147.968 17.0556 147.713 16.6032C147.458 16.1404 147.331 15.5881 147.331 14.9465V11.6013C147.331 10.9491 147.458 10.3969 147.713 9.94455C147.968 9.49222 148.335 9.15035 148.813 8.91893C149.302 8.67698 149.876 8.55601 150.535 8.55601C151.216 8.55601 151.779 8.67172 152.225 8.90315C152.682 9.13457 153.022 9.47644 153.246 9.92877C153.479 10.3811 153.596 10.9386 153.596 11.6013V13.4317H149.898V15.1831C149.898 15.4146 149.924 15.6039 149.977 15.7512C150.03 15.8984 150.105 16.0036 150.2 16.0668C150.296 16.1299 150.408 16.1614 150.535 16.1614C150.663 16.1614 150.774 16.1351 150.87 16.0825C150.976 16.0194 151.056 15.9247 151.109 15.7985C151.173 15.6723 151.205 15.4987 151.205 15.2778V14.3153H153.596V15.1989C153.596 16.1246 153.325 16.8241 152.783 17.2975C152.241 17.7604 151.492 17.9918 150.535 17.9918ZM149.898 12.2325H151.205V11.3173C151.205 11.0754 151.173 10.886 151.109 10.7493C151.056 10.6125 150.976 10.5179 150.87 10.4653C150.774 10.4127 150.657 10.3864 150.519 10.3864C150.392 10.3864 150.28 10.4179 150.185 10.481C150.1 10.5441 150.03 10.6546 149.977 10.8124C149.924 10.9597 149.898 11.1753 149.898 11.4593V12.2325Z" fill="#2926AC"/>
<path d="M155.011 17.834V8.7138H157.562V9.43963C157.902 9.11353 158.253 8.88211 158.614 8.74536C158.986 8.60861 159.363 8.54023 159.746 8.54023C160.118 8.54023 160.437 8.6349 160.702 8.82425C160.979 9.00308 161.186 9.27132 161.324 9.62897C161.686 9.22924 162.063 8.95048 162.456 8.79269C162.86 8.62439 163.264 8.54023 163.668 8.54023C164.029 8.54023 164.343 8.62965 164.609 8.80847C164.874 8.97678 165.081 9.22924 165.23 9.56586C165.379 9.89195 165.453 10.2864 165.453 10.7493V17.834H162.903V11.0175C162.903 10.7651 162.855 10.5862 162.759 10.481C162.674 10.3653 162.541 10.3075 162.361 10.3075C162.254 10.3075 162.121 10.339 161.962 10.4021C161.803 10.4547 161.648 10.5336 161.5 10.6388C161.5 10.6599 161.5 10.6809 161.5 10.7019C161.5 10.7125 161.5 10.7282 161.5 10.7493V17.834H158.981V11.0175C158.981 10.7651 158.933 10.5862 158.837 10.481C158.742 10.3653 158.603 10.3075 158.423 10.3075C158.306 10.3075 158.168 10.339 158.008 10.4021C157.859 10.4547 157.711 10.5336 157.562 10.6388V17.834H155.011Z" fill="#2926AC"/>
<path d="M170.028 17.9918C169.358 17.9918 168.784 17.8761 168.306 17.6446C167.828 17.4027 167.461 17.0556 167.206 16.6032C166.951 16.1404 166.823 15.5881 166.823 14.9465V11.6013C166.823 10.9491 166.951 10.3969 167.206 9.94455C167.461 9.49222 167.828 9.15035 168.306 8.91893C168.795 8.67698 169.369 8.55601 170.028 8.55601C170.708 8.55601 171.272 8.67172 171.718 8.90315C172.175 9.13457 172.515 9.47644 172.738 9.92877C172.972 10.3811 173.089 10.9386 173.089 11.6013V13.4317H169.39V15.1831C169.39 15.4146 169.417 15.6039 169.47 15.7512C169.523 15.8984 169.598 16.0036 169.693 16.0668C169.789 16.1299 169.9 16.1614 170.028 16.1614C170.156 16.1614 170.267 16.1351 170.363 16.0825C170.469 16.0194 170.549 15.9247 170.602 15.7985C170.666 15.6723 170.698 15.4987 170.698 15.2778V14.3153H173.089V15.1989C173.089 16.1246 172.818 16.8241 172.276 17.2975C171.734 17.7604 170.985 17.9918 170.028 17.9918ZM169.39 12.2325H170.698V11.3173C170.698 11.0754 170.666 10.886 170.602 10.7493C170.549 10.6125 170.469 10.5179 170.363 10.4653C170.267 10.4127 170.15 10.3864 170.012 10.3864C169.884 10.3864 169.773 10.4179 169.677 10.481C169.592 10.5441 169.523 10.6546 169.47 10.8124C169.417 10.9597 169.39 11.1753 169.39 11.4593V12.2325Z" fill="#2926AC"/>
<path d="M174.504 17.834V8.7138H177.102V9.62897C177.442 9.29236 177.793 9.02938 178.154 8.84003C178.527 8.65068 178.914 8.55601 179.318 8.55601C179.701 8.55601 180.014 8.65068 180.259 8.84003C180.514 9.01886 180.705 9.27132 180.833 9.59742C180.96 9.91299 181.024 10.2759 181.024 10.6862V17.834H178.441V11.0491C178.441 10.8282 178.404 10.6599 178.33 10.5441C178.255 10.4284 178.117 10.3706 177.915 10.3706C177.809 10.3706 177.682 10.4021 177.533 10.4653C177.395 10.5179 177.251 10.5967 177.102 10.7019V17.834H174.504Z" fill="#2926AC"/>
<path d="M185.438 17.9287C184.747 17.9287 184.21 17.8287 183.828 17.6289C183.456 17.429 183.2 17.1397 183.062 16.761C182.924 16.3718 182.855 15.9037 182.855 15.3567V10.4021H181.962V8.7138H182.855V5.93672H185.486V8.7138H186.793V10.4021H185.486V15.1042C185.486 15.3672 185.56 15.5566 185.709 15.6723C185.868 15.788 186.065 15.8458 186.299 15.8458C186.437 15.8458 186.564 15.8406 186.681 15.8301C186.798 15.809 186.905 15.7933 187 15.7827V17.8024C186.862 17.8235 186.644 17.8498 186.347 17.8813C186.049 17.9129 185.746 17.9287 185.438 17.9287Z" fill="#2926AC"/>
</svg>
